<?xml version="1.0" encoding="utf-8"?>
<!-- Generator: Adobe Illustrator 16.0.0, SVG Export Plug-In . SVG Version: 6.00 Build 0)  -->
<!DOCTYPE svg PUBLIC "-//W3C//DTD SVG 1.1//EN" "http://www.w3.org/Graphics/SVG/1.1/DTD/svg11.dtd">
<svg version="1.1" id="Layer_1" xmlns="http://www.w3.org/2000/svg" xmlns:xlink="http://www.w3.org/1999/xlink" x="0px" y="0px"
	 width="32px" height="32px" viewBox="0 0 32 32" enable-background="new 0 0 32 32" xml:space="preserve">
<path fill="#FFFFFF" stroke="#000000" stroke-width="4" stroke-miterlimit="10" d="M2.849,10.111"/>
<path fill="#FFFFFF" stroke="#000000" stroke-width="4" stroke-miterlimit="10" d="M4.686,11.202c0,0,1.614-8.362,7.093-8.158
	c5.479,0.204-1.564,8.515,3.669,8.158c5.234-0.356,1.81-8.012,6.114-8.162c4.306-0.149-0.732,8.978,4.747,8.825
	c5.478-0.153-0.344-9.127,2.298-9.127s-13.11,10.147-18.1,10.351c-4.989,0.204-8.071-3.518-7.484,4.64
	c0.587,8.158-4.55,10.86,4.989,7.495c9.54-3.365,1.371-12.533,6.751-8.076c5.379,4.456,15.458-5.731,8.903,0
	c-6.555,5.73-11.741,8.075-3.718,7.82s8.217-4.639,8.023-0.255c-0.197,4.386-20.82,2.499-10.987,4.641"/>
</svg>
