<?xml version="1.0" encoding="utf-8"?>
<!-- Generator: Adobe Illustrator 16.0.0, SVG Export Plug-In . SVG Version: 6.00 Build 0)  -->
<!DOCTYPE svg PUBLIC "-//W3C//DTD SVG 1.1//EN" "http://www.w3.org/Graphics/SVG/1.1/DTD/svg11.dtd">
<svg version="1.1" xmlns="http://www.w3.org/2000/svg" xmlns:xlink="http://www.w3.org/1999/xlink" x="0px" y="0px" width="34px"
	 height="24px" viewBox="0 0 34 24" enable-background="new 0 0 34 24" xml:space="preserve">
<g id="Layer_1">
	<ellipse cx="24.221" cy="11.97" rx="6.783" ry="3.459"/>
	<ellipse cx="23.137" cy="15.545" rx="6.818" ry="3.273"/>
	<ellipse cx="26.936" cy="13.539" rx="4.953" ry="5.037"/>
	<ellipse cx="17.235" cy="12.977" rx="4.138" ry="3.782"/>
	<ellipse cx="17.557" cy="16.674" rx="3.511" ry="2.747"/>
	<polyline points="14.618,18.028 14.065,17.204 14.046,17.681 13.368,15.384 11.785,12.831 14.302,15.499 14.096,16.987 
		14.046,17.342 	"/>
	<polyline points="19.066,19.151 19.066,19.98 18.795,21.761 18.015,21.999 15.132,21.999 14.369,21.643 14.046,21.015 
		14.046,17.962 14.065,17.35 	"/>
	<polyline points="24.936,17.962 24.936,21.015 25.258,21.643 26.021,21.999 28.904,21.999 29.684,21.761 29.955,19.98 
		29.955,19.151 31.889,14.35 	"/>
	<polyline points="24.936,20.366 24.467,20.003 23.001,19.98 24.799,18.818 	"/>
	<polyline points="19.049,20.366 19.518,20.003 20.984,19.98 19.186,18.818 	"/>
	<rect x="17.812" y="16.368" width="8.649" height="3.612"/>
	<path d="M15.812,15.435c0,0.609-0.494,1.103-1.103,1.103l0,0c-0.609,0-1.103-0.493-1.103-1.103v-0.575
		c0-0.609,0.494-1.103,1.103-1.103l0,0c0.609,0,1.103,0.493,1.103,1.103V15.435z"/>
	<path d="M14.997,17.878c0,0.271-0.22,0.492-0.492,0.492l0,0c-0.272,0-0.492-0.221-0.492-0.492v-0.44
		c0-0.271,0.22-0.492,0.492-0.492l0,0c0.271,0,0.492,0.221,0.492,0.492V17.878z"/>
	<ellipse cx="18.117" cy="19.557" rx="1.255" ry="1.119"/>
	<ellipse cx="25.511" cy="19.556" rx="0.95" ry="0.795"/>
	<polyline points="12.96,3.885 14.114,2.765 15.437,2.001 16.997,1.51 18.761,1.307 18.607,3.19 18.219,4.664 18.298,6.406 
		18.863,7.751 16.217,8.057 13.503,7.65 	"/>
	<ellipse cx="14.504" cy="10.372" rx="3.613" ry="3.978"/>
	<ellipse cx="13.7" cy="13.416" rx="1.009" ry="1.269"/>
	<ellipse cx="18.117" cy="9.49" rx="1.849" ry="0.958"/>
	<ellipse cx="11.774" cy="7.608" rx="4.088" ry="3.926"/>
	<polyline points="8.878,10.712 7.121,13.569 6.731,15.994 	"/>
	<polyline points="7.687,8.532 5.803,13.568 5.744,11.017 5.939,9.458 6.133,8.881 6.991,7.276 7.703,6.292 8.878,5.412 	"/>
	<polyline points="7.687,8.396 5.396,14.35 7.007,15.8 7.364,14.99 7.565,14.432 7.311,13.569 9.127,10.712 	"/>
	<polygon points="9.993,11.141 11.116,11.748 9.738,12.5 8.042,12.977 8.185,12.195 9.195,11.856 	"/>
	<ellipse cx="10.864" cy="10.873" rx="0.922" ry="0.916"/>
	<polyline fill="#0F0F0F" points="8.042,12.977 7.687,12.979 8.042,12.419 8.329,12.896 	"/>
	<polyline fill="#0F0F0F" points="7.703,6.292 7.905,6.008 8.329,5.412 8.008,6.08 	"/>
	<ellipse fill="#0F0F0F" cx="7.897" cy="8.379" rx="0.432" ry="0.458"/>
	<polyline fill="#0F0F0F" points="7.007,15.8 6.377,15.994 5.261,16.062 4.311,15.452 4.022,14.579 3.897,13.216 3.785,12 	"/>
	<polyline points="7.565,14.432 7.703,13.569 7.438,14 	"/>
	<polyline points="5.396,13.926 4.854,11.535 4.175,11.535 3.497,11.381 3.938,14.808 4.311,15.452 	"/>
	<polyline fill="#0F0F0F" points="31.889,13.569 32.567,12.979 31.854,12.979 32.567,12.979 32.602,12.467 30.764,10.372 	"/>
	<rect x="16.624" y="8.379" width="11.024" height="3.718"/>
	<polyline points="27.648,8.379 28.412,8.729 27.648,8.556 	"/>
	<ellipse fill="#FFFFFF" cx="10.976" cy="5.852" rx="0.424" ry="0.44"/>
</g>
<g id="Layer_2">
</g>
</svg>
